<svg width="24" height="24" viewBox="0 0 24 24" fill="none" xmlns="http://www.w3.org/2000/svg"><mask id="mask0_15900:42041__knh5vsqD" maskUnits="userSpaceOnUse" x="0" y="0" width="24" height="24" style="mask-type: alpha;"><path d="M0 6.10352e-05H24V24.0001H0V6.10352e-05Z" fill="white"></path></mask><g mask="url(#mask0_15900:42041__knh5vsqD)"><path fill-rule="evenodd" clip-rule="evenodd" d="M5.16056 22.3225L1.68357 18.8576L2.77004 17.7749L4.24982 19.2481C4.3851 19.3843 4.56362 19.4524 4.74215 19.4524C4.92067 19.4524 5.09919 19.3843 5.23587 19.2481C5.50784 18.9771 5.50784 18.5365 5.23587 18.2655L3.75609 16.7922L4.74215 15.8082L5.23587 16.3002C5.37116 16.4364 5.54968 16.5031 5.7282 16.5031C5.90672 16.5031 6.08524 16.4364 6.22192 16.3002C6.49389 16.0292 6.49389 15.5886 6.22192 15.3176L5.7282 14.8256L6.71425 13.8429L7.20937 14.3349C7.34466 14.4712 7.52318 14.5379 7.7017 14.5379C7.88022 14.5379 8.05874 14.4712 8.19542 14.3349C8.46739 14.0639 8.46739 13.6233 8.19542 13.3523L7.7003 12.8603L7.99877 12.5643L11.4758 16.0292L5.16056 22.3225ZM6.06153 6.7032L18.0629 18.6602L17.0755 19.6428L5.07548 7.68584L6.06153 6.7032ZM2.29305 1.96516C2.69891 1.56071 3.23169 1.35917 3.76307 1.35917C4.29584 1.35917 4.82862 1.56071 5.23447 1.96516L7.04061 3.76225L4.09919 6.69347L2.29305 4.89499C1.48273 4.08609 1.48273 2.77267 2.29305 1.96516ZM18.5497 2.04994L22.0267 5.51348L16.406 11.116L13.8746 8.59203C13.9611 8.55728 14.042 8.50725 14.1117 8.43775C14.3837 8.16534 14.3837 7.72614 14.1117 7.45512L13.618 6.96311L14.6041 5.98047L15.0978 6.47249C15.2345 6.6073 15.413 6.67541 15.5915 6.67541C15.7686 6.67541 15.9472 6.6073 16.0838 6.47249C16.3558 6.20007 16.3558 5.76088 16.0838 5.48985L15.5915 4.99784L16.5776 4.01521L18.056 5.48985C18.1926 5.62467 18.3712 5.69277 18.5497 5.69277C18.7282 5.69277 18.9053 5.62467 19.042 5.48985C19.314 5.21744 19.314 4.77824 19.042 4.50722L17.5636 3.03257L18.5497 2.04994ZM19.5399 19.1536C19.5413 19.1522 19.5427 19.1522 19.5427 19.1522C19.5427 19.1522 19.5441 19.1508 19.5441 19.1494L20.7421 17.9555L21.4395 19.8527L20.2442 21.0424L18.3405 20.3475L19.5399 19.1536ZM11.4493 8.14032C11.4507 8.14032 11.4507 8.14171 11.4507 8.14171H11.452L15.9123 12.5865C15.9123 12.5879 15.9123 12.5879 15.9137 12.5893C15.9151 12.5907 15.9151 12.5907 15.9165 12.5907L20.035 16.6949L19.049 17.6776L7.04898 5.72057L8.03503 4.73793L11.4493 8.14032ZM23.9583 22.6616L21.6766 16.4559C21.6752 16.4517 21.671 16.4489 21.6682 16.4448C21.6348 16.3558 21.5832 16.2724 21.5148 16.2043L17.3935 12.0987L23.505 6.00549C23.6361 5.87484 23.7101 5.69833 23.7101 5.51348C23.7101 5.32863 23.6361 5.15211 23.505 5.02286L19.042 0.576681C18.77 0.304268 18.3279 0.304268 18.056 0.576681L11.943 6.66707L8.52736 3.26329C8.51202 3.24939 8.49389 3.24383 8.47855 3.23132L6.22053 0.982521C4.90672 -0.326731 2.62081 -0.328121 1.307 0.982521C-0.0458595 2.33069 -0.0458595 4.52668 1.307 5.87762L3.55944 8.11947C3.57339 8.13893 3.58036 8.16117 3.5971 8.17646L7.01272 11.5802L0.203792 18.3656C-0.0681747 18.638 -0.0681747 19.0772 0.203792 19.3482L4.66683 23.7971C4.80351 23.932 4.98203 24.0001 5.16056 24.0001C5.33908 24.0001 5.5176 23.932 5.65428 23.7971L12.4618 17.0118L16.5818 21.1175C16.6543 21.1898 16.738 21.2398 16.8258 21.2718C16.83 21.2745 16.8314 21.2773 16.8356 21.2787L23.0629 23.5539C23.141 23.5817 23.2219 23.5956 23.3028 23.5956C23.4841 23.5956 23.6626 23.5247 23.7951 23.3927C23.9876 23.2009 24.0504 22.916 23.9583 22.6616Z" fill="#222222"></path></g></svg>