<svg width="24" height="24" viewBox="0 0 24 24" fill="none" xmlns="http://www.w3.org/2000/svg"><g clip-path="url(#clip0__XSm3LNPn)"><path d="M23.8001 1.80001C23.7001 1.60001 23.5001 1.40001 23.3001 1.30001C21.0001 0.700013 18.6001 1.30001 17.0001 3.00001C15.4001 4.60001 14.8001 7.00001 15.3001 9.20001V18.6C15.3001 19 15.6001 19.3 16.0001 19.3C16.4001 19.3 16.7001 19 16.7001 18.6V9.90001C17.0001 9.90001 17.2001 10 17.5001 10C19.2001 10 20.9001 9.30001 22.1001 8.10001C23.7001 6.40001 24.4001 4.00001 23.8001 1.80001ZM21.1001 7.10001C20.1001 8.10001 18.8001 8.60001 17.5001 8.60001L20.5001 5.60001C20.8001 5.30001 20.8001 4.90001 20.5001 4.60001C20.2001 4.30001 19.8001 4.30001 19.5001 4.60001L16.5001 7.60001C16.5001 6.30001 17.0001 5.00001 18.0001 4.00001C19.2001 2.80001 20.9001 2.30001 22.5001 2.60001C22.8001 4.20001 22.3001 5.90001 21.1001 7.10001Z" fill="#222222"></path><path d="M10.0001 2.7C7.60006 0.399999 4.10006 -0.500001 0.80006 0.299999C0.60006 0.399999 0.40006 0.599999 0.30006 0.799999C-0.49994 4.1 0.40006 7.6 2.70006 10C4.50006 11.8 6.90006 12.7 9.40006 12.7C9.90006 12.7 10.4001 12.6 11.0001 12.6V23.3C11.0001 23.7 11.3001 24 11.7001 24C12.1001 24 12.4001 23.7 12.4001 23.3V11.8C13.2001 8.5 12.3001 5.1 10.0001 2.7ZM3.70006 9C1.80006 7 1.00006 4.3 1.60006 1.6C4.30006 0.999999 7.00006 1.8 9.00006 3.7C10.7001 5.4 11.5001 7.8 11.3001 10.2L6.30006 5.5C6.00006 5.2 5.60006 5.2 5.30006 5.5C5.00006 5.8 5.00006 6.3 5.30006 6.5L10.2001 11.2C7.80006 11.5 5.50006 10.7 3.70006 9Z" fill="#222222"></path></g><defs><clipPath id="clip0__XSm3LNPn"><rect width="24" height="24" fill="white"></rect></clipPath></defs></svg>