<svg width="24" height="24" viewBox="0 0 24 24" fill="none" xmlns="http://www.w3.org/2000/svg"><path d="M24 6.77647C24 5.64706 23.0118 4.65882 21.8824 4.65882C20.7529 4.65882 19.7647 5.64706 19.7647 6.77647C19.7647 7.48235 20.1882 8.18824 20.6118 8.47059L17.0824 12.5647L12.9882 3.95294C13.6941 3.67059 14.1176 2.96471 14.1176 2.11765C14.1176 0.988235 13.1294 0 12 0C10.8706 0 9.88235 0.988235 9.88235 2.11765C9.88235 2.96471 10.3059 3.67059 11.0118 3.95294L6.91765 12.5647L3.38824 8.61176C3.81176 8.18824 4.23529 7.48235 4.23529 6.77647C4.23529 5.64706 3.24706 4.65882 2.11765 4.65882C0.988235 4.65882 0 5.64706 0 6.77647C0 7.76471 0.705882 8.61176 1.55294 8.75294L3.95294 19.7647H3.52941C3.10588 19.7647 2.82353 20.0471 2.82353 20.4706V23.2941C2.82353 23.7176 3.10588 24 3.52941 24H20.4706C20.8941 24 21.1765 23.7176 21.1765 23.2941V20.4706C21.1765 20.0471 20.8941 19.7647 20.4706 19.7647H20.0471L22.4471 8.89412C23.2941 8.61176 24 7.76471 24 6.77647ZM21.8824 6.07059C22.3059 6.07059 22.5882 6.35294 22.5882 6.77647C22.5882 7.2 22.3059 7.48235 21.8824 7.48235C21.4588 7.48235 21.1765 7.2 21.1765 6.77647C21.1765 6.35294 21.4588 6.07059 21.8824 6.07059ZM12 1.41176C12.4235 1.41176 12.7059 1.69412 12.7059 2.11765C12.7059 2.54118 12.4235 2.82353 12 2.82353C11.5765 2.82353 11.2941 2.54118 11.2941 2.11765C11.2941 1.69412 11.5765 1.41176 12 1.41176ZM2.11765 6.07059C2.54118 6.07059 2.82353 6.49412 2.82353 6.77647C2.82353 7.05882 2.54118 7.48235 2.11765 7.48235C1.69412 7.48235 1.41176 7.2 1.41176 6.77647C1.41176 6.35294 1.69412 6.07059 2.11765 6.07059ZM19.7647 22.5882H4.23529V21.1765H4.8H19.2H19.7647V22.5882ZM18.6353 19.7647H5.36471L3.38824 10.7294L6.49412 14.2588C6.63529 14.4 6.91765 14.5412 7.05882 14.5412C7.34118 14.5412 7.48235 14.4 7.62353 14.1176L11.8588 5.08235L16.0941 14.1176C16.2353 14.4 16.3765 14.5412 16.6588 14.5412C16.9412 14.5412 17.0824 14.5412 17.2235 14.2588L20.3294 10.7294L18.6353 19.7647Z" fill="#222222"></path><path d="M12 12.7059C10.8706 12.7059 9.88232 13.6941 9.88232 14.8235C9.88232 15.9529 10.8706 16.9412 12 16.9412C13.1294 16.9412 14.1176 15.9529 14.1176 14.8235C14.1176 13.6941 13.1294 12.7059 12 12.7059ZM12 15.5294C11.5764 15.5294 11.2941 15.247 11.2941 14.8235C11.2941 14.4 11.5764 14.1176 12 14.1176C12.4235 14.1176 12.7059 14.4 12.7059 14.8235C12.7059 15.247 12.4235 15.5294 12 15.5294Z" fill="#222222"></path></svg>